<!-- icon666.com - MILLIONS OF FREE VECTOR ICONS --><svg enable-background="new 0 0 64 64" viewBox="0 0 64 64" xmlns="http://www.w3.org/2000/svg"><g id="N"><path d="m32 3.85c-15.54 0-28.15 12.61-28.15 28.15s12.61 28.15 28.15 28.15 28.15-12.61 28.15-28.15-12.61-28.15-28.15-28.15zm12.15 43.36c0 .4-.33.73-.73.73h-3.97c-.25 0-.49-.13-.62-.34l-9.66-15.44c-.81-1.29-1.51-2.45-2.17-3.56-.19-.33-.55-.53-.94-.53-.1 0-.199.01-.29.04-.479.13-.81.57-.8 1.07.03 1.54.04 3.19.04 5.03v13c0 .4-.33.73-.729.73h-3.7c-.4 0-.73-.33-.73-.73v-30.42c0-.4.33-.73.73-.73h4.29c.25 0 .479.13.61.34l9.75 15.39c.609.97 1.21 1.94 1.77 2.88.24.42.78.63 1.24.5.47-.13.8-.58.79-1.07-.03-1.48-.04-2.99-.04-4.58v-12.73c0-.4.33-.73.729-.73h3.7c.4 0 .73.33.73.73z"></path></g></svg>